# 3ds Max Wavefront OBJ Exporter v0.97b - (c)2007 guruware
# File Created: 02.06.2016 16:32:51

mtllib unbreak.mtl

#
# object mesh_4_
#

v  0.7431 1.2620 0.0000
v  0.4621 1.3102 0.1505
v  0.6743 1.0902 0.3463
v  0.4763 1.3926 0.0000
v  0.8649 0.3539 0.4904
v  0.4621 1.3102 -0.1505
v  1.0630 0.0000 -0.0000
v  0.6743 1.0902 -0.3463
v  0.8649 0.3539 -0.4904
v  0.4596 1.2761 0.3564
v  0.2992 1.4792 0.0000
v  0.9565 -0.0000 0.5596
v  0.3586 0.5101 0.6741
v  0.4596 -0.0000 0.8247
v  0.3586 0.5101 -0.6741
v  -0.0191 1.6906 0.3788
v  0.3283 1.1840 0.4379
v  -0.0793 1.5212 0.4605
v  0.4596 1.2761 -0.3564
v  0.0945 0.3844 0.8208
v  0.2948 0.8325 0.5789
v  0.2948 0.8325 -0.5789
v  -0.1280 1.6471 0.3361
v  0.2149 1.7249 0.0000
v  -0.2021 1.7531 0.0000
v  0.3283 1.1840 -0.4379
v  -0.0191 1.6906 -0.3788
v  0.0956 1.3770 -0.4519
v  -0.0636 -0.0000 1.0390
v  -0.0616 0.8325 0.7022
v  -0.4301 1.5262 0.2175
v  -0.0793 1.5212 -0.4605
v  0.1993 1.0935 -0.5180
v  -0.0616 0.8325 -0.7022
v  -0.2766 0.6813 0.8375
v  -0.3791 0.5997 0.8098
v  -0.5214 -0.0000 0.8535
v  -0.5289 1.5794 0.0000
v  -0.1280 1.6471 -0.3361
v  -0.4301 1.5262 -0.2175
v  -0.3238 0.8325 0.7928
v  -0.3238 0.8325 -0.7928
v  -0.6216 0.3625 0.6478
v  -0.8964 -0.0000 0.4384
v  -0.7303 1.1741 0.0000
v  -0.6424 1.0679 -0.3256
v  -0.7514 0.8325 -0.3812
v  -0.6216 0.3625 -0.6478
v  -0.3791 0.5997 -0.8098
v  -0.2766 0.6813 -0.8375
v  -0.8007 0.5494 0.4006
v  -1.0544 0.0000 -0.0000
v  -0.6424 1.0679 0.3256
v  -0.7514 0.8325 0.3812
v  -0.8007 0.5494 -0.4006
v  -0.9000 0.8325 -0.0000
v  -0.9403 0.6151 -0.0000
v  -0.8964 0.0000 -0.4384
# 58 vertices

vn 0.7313 0.6820 -0.0000
vn 0.5328 0.7881 0.3084
vn 0.6379 0.4632 0.6153
vn 0.4395 0.8982 -0.0000
vn 0.7496 0.3047 0.5875
vn 0.5327 0.7882 -0.3083
vn 0.9658 0.2552 0.0465
vn 0.6378 0.4632 -0.6153
vn 0.8189 0.2823 -0.4997
vn 0.5499 0.6049 0.5759
vn 0.7204 0.6936 -0.0000
vn 0.7656 0.3086 0.5645
vn 0.3622 0.3179 0.8762
vn 0.3886 0.3256 0.8619
vn 0.3748 0.2930 -0.8796
vn 0.0909 0.7756 0.6246
vn 0.3194 0.3259 0.8898
vn -0.0923 0.4599 0.8831
vn 0.5505 0.6047 -0.5755
vn 0.3317 0.3439 0.8785
vn 0.3176 0.3296 0.8891
vn 0.3193 0.3248 -0.8903
vn -0.4871 0.6800 0.5480
vn 0.6915 0.7224 -0.0000
vn -0.2840 0.9588 -0.0000
vn 0.3235 0.3256 -0.8884
vn 0.0903 0.7765 -0.6236
vn 0.3165 0.3238 -0.8916
vn 0.0569 0.2917 0.9548
vn 0.3103 0.3344 0.8899
vn -0.6002 0.6063 0.5217
vn -0.0959 0.4599 -0.8828
vn 0.3094 0.3219 -0.8948
vn -0.0305 0.2714 0.9620
vn -0.5340 0.1868 0.8246
vn -0.5695 0.1768 0.8027
vn -0.7317 0.6816 -0.0000
vn -0.4871 0.6800 -0.5480
vn -0.6002 0.6063 -0.5217
vn -0.2424 0.3671 0.8981
vn -0.4070 0.3468 -0.8450
vn -0.7048 0.1926 0.6828
vn -0.8451 0.1818 0.5028
vn -0.8853 0.4651 -0.0000
vn -0.7343 0.4514 -0.5071
vn -0.7920 0.3234 -0.5178
vn -0.7086 0.1898 -0.6796
vn -0.6147 0.2014 -0.7626
vn -0.3711 0.1548 -0.9156
vn -0.8401 0.1793 0.5119
vn -0.9818 0.1898 -0.0000
vn -0.7343 0.4514 0.5071
vn -0.7920 0.3234 0.5179
vn -0.8401 0.1792 -0.5119
vn -0.9489 0.3155 -0.0000
vn -0.9827 0.1852 -0.0000
vn -0.8795 0.1834 -0.4391
# 57 vertex normals

vt 0.9151 0.6040 0.0000
vt 0.7805 0.6820 0.0000
vt 0.8136 0.5480 0.0000
vt 0.8189 0.7127 0.0000
vt 0.8625 0.1779 0.0000
vt 0.9853 0.0000 0.0000
vt 0.7302 0.6461 0.0000
vt 0.7550 0.7849 0.0000
vt 0.8860 0.0000 0.0000
vt 0.6403 0.2794 0.0000
vt 0.6647 0.0000 0.0000
vt 0.5442 0.8646 0.0000
vt 0.6647 0.6129 0.0000
vt 0.5131 0.7839 0.0000
vt 0.5305 0.2120 0.0000
vt 0.6249 0.4559 0.0000
vt 0.4665 0.8461 0.0000
vt 0.6073 0.9607 0.0000
vt 0.3202 0.9889 0.0000
vt 0.5737 0.7152 0.0000
vt 0.4529 0.0000 0.0000
vt 0.4877 0.4559 0.0000
vt 0.2509 0.7948 0.0000
vt 0.6004 0.5802 0.0000
vt 0.3988 0.3731 0.0000
vt 0.3648 0.3284 0.0000
vt 0.3083 0.0000 0.0000
vt 0.1093 0.7829 0.0000
vt 0.3868 0.4559 0.0000
vt 0.2513 0.1985 0.0000
vt 0.1318 0.0000 0.0000
vt 0.0631 0.6091 0.0000
vt 0.1969 0.5704 0.0000
vt 0.1774 0.4559 0.0000
vt 0.1619 0.3009 0.0000
vt 0.0111 0.0000 0.0000
vt 0.0241 0.4628 0.0000
vt 0.0207 0.3419 0.0000
# 38 texture coords

g mesh_4_
usemtl kudaki_iwa_001
s off
f 1/1/1 2/2/2 3/3/3 
f 1/1/1 4/4/4 2/2/2 
f 1/1/1 3/3/3 5/5/5 
f 1/1/1 6/2/6 4/4/4 
f 1/1/1 5/5/5 7/6/7 
f 1/1/1 8/3/8 6/2/6 
f 1/1/1 7/6/7 9/5/9 
f 1/1/1 9/5/9 8/3/8 
f 2/2/2 10/7/10 3/3/3 
f 4/4/4 6/2/6 11/8/11 
f 2/2/2 4/4/4 11/8/11 
f 2/2/2 11/8/11 10/7/10 
f 5/5/5 12/9/12 7/6/7 
f 5/5/5 3/3/3 13/10/13 
f 5/5/5 14/11/14 12/9/12 
f 5/5/5 13/10/13 14/11/14 
f 9/5/9 15/10/15 8/3/8 
f 10/7/10 11/8/11 16/12/16 
f 10/7/10 17/13/17 3/3/3 
f 10/7/10 16/12/16 18/14/18 
f 10/7/10 18/14/18 17/13/17 
f 6/2/6 8/3/8 19/7/19 
f 6/2/6 19/7/19 11/8/11 
f 13/10/13 20/15/20 14/11/14 
f 13/10/13 3/3/3 21/16/21 
f 13/10/13 21/16/21 20/15/20 
f 3/3/3 17/13/17 21/16/21 
f 15/10/15 22/16/22 8/3/8 
f 16/12/16 23/17/23 18/14/18 
f 16/12/16 11/8/11 24/18/24 
f 16/12/16 25/19/25 23/17/23 
f 16/12/16 24/18/24 25/19/25 
f 8/3/8 22/16/22 26/13/26 
f 19/7/19 8/3/8 26/13/26 
f 24/18/24 11/8/11 27/12/27 
f 24/18/24 27/12/27 25/19/25 
f 19/7/19 27/12/27 11/8/11 
f 19/7/19 26/13/26 28/20/28 
f 19/7/19 28/20/28 27/12/27 
f 14/11/14 20/15/20 29/21/29 
f 21/16/21 30/22/30 20/15/20 
f 17/13/17 30/22/30 21/16/21 
f 17/13/17 18/14/18 30/22/30 
f 23/17/23 31/23/31 18/14/18 
f 23/17/23 25/19/25 31/23/31 
f 28/20/28 32/14/32 27/12/27 
f 33/24/26 26/13/26 22/16/26 
f 28/20/26 26/13/26 33/24/26 
f 28/20/28 34/22/33 32/14/32 
f 28/20/28 33/24/28 34/22/33 
f 33/24/28 22/16/22 34/22/33 
f 29/21/29 20/15/20 35/25/34 
f 20/15/20 30/22/30 35/25/34 
f 29/21/29 35/25/34 36/26/35 
f 29/21/29 36/26/35 37/27/36 
f 25/19/25 38/28/37 31/23/31 
f 25/19/25 27/12/27 39/17/38 
f 39/17/38 27/12/27 32/14/32 
f 25/19/25 39/17/38 40/23/39 
f 25/19/25 40/23/39 38/28/37 
f 39/17/38 32/14/32 40/23/39 
f 18/14/18 31/23/31 41/29/40 
f 35/25/34 41/29/40 36/26/35 
f 35/25/34 30/22/30 41/29/40 
f 18/14/18 41/29/40 30/22/30 
f 32/14/32 42/29/41 40/23/39 
f 34/22/33 42/29/41 32/14/32 
f 37/27/36 36/26/35 43/30/42 
f 36/26/35 41/29/40 43/30/42 
f 37/27/36 43/30/42 44/31/43 
f 38/28/37 45/32/44 31/23/31 
f 38/28/37 40/23/39 45/32/44 
f 42/29/41 46/33/45 40/23/39 
f 40/23/39 46/33/45 45/32/44 
f 42/29/41 47/34/46 46/33/45 
f 42/29/41 48/30/47 47/34/46 
f 42/29/41 49/26/48 48/30/47 
f 42/29/41 50/25/49 49/26/48 
f 44/31/43 43/30/42 51/35/50 
f 44/31/43 51/35/50 52/36/51 
f 31/23/31 45/32/44 53/33/52 
f 41/29/40 31/23/31 53/33/52 
f 43/30/42 54/34/53 51/35/50 
f 41/29/40 54/34/53 43/30/42 
f 41/29/40 53/33/52 54/34/53 
f 47/34/46 48/30/47 55/35/54 
f 56/37/55 45/32/44 46/33/45 
f 56/37/55 53/33/52 45/32/44 
f 56/37/55 54/34/53 53/33/52 
f 47/34/46 56/37/55 46/33/45 
f 47/34/46 57/38/56 56/37/55 
f 47/34/46 55/35/54 57/38/56 
f 56/37/55 57/38/56 54/34/53 
f 57/38/56 52/36/51 51/35/50 
f 57/38/56 55/35/54 52/36/51 
f 57/38/56 51/35/50 54/34/53 
f 48/30/47 58/31/57 55/35/54 
f 55/35/54 58/31/57 52/36/51 
# 0 polygons - 98 triangles

