# 3ds Max Wavefront OBJ Exporter v0.97b - (c)2007 guruware
# File Created: 30.05.2016 17:10:14

mtllib exploding.mtl

#
# object Component_1
#

v  -9.0900 10.3537 9.6112
v  -0.4450 15.5109 14.2662
v  -9.9450 15.5109 10.4662
v  -0.4450 10.3537 13.0692
v  8.2000 10.3537 9.6112
v  9.0550 15.5109 10.4662
v  -9.9450 20.8234 10.4662
v  -0.4450 20.8234 14.2662
v  -12.2022 10.3537 0.9662
v  -13.3650 15.5109 0.9662
v  -6.4965 4.8923 7.0177
v  -0.4450 4.8923 9.4383
v  12.4750 15.5109 0.9662
v  11.3122 10.3537 0.9662
v  9.0550 20.8234 10.4662
v  5.6065 4.8923 7.0177
v  -9.4700 25.0734 9.9912
v  -0.4450 25.0734 13.6012
v  -13.3650 20.8234 0.9662
v  -9.0900 10.3537 -7.6788
v  -9.9450 15.5109 -8.5338
v  -8.6750 4.8923 0.9662
v  -0.4450 1.5680 4.2703
v  -2.8051 1.5680 3.3263
v  7.7850 4.8923 0.9662
v  8.2000 10.3537 -7.6788
v  9.0550 15.5109 -8.5338
v  12.4750 20.8234 0.9662
v  8.5800 25.0734 9.9912
v  1.9151 1.5680 3.3263
v  -5.1950 45.0713 5.7162
v  -0.4450 45.0713 7.6162
v  -12.7190 25.0734 0.9662
v  -9.9450 20.8234 -8.5338
v  -0.4450 15.5109 -12.3338
v  -0.4450 10.3537 -11.1368
v  -6.4965 4.8923 -5.0853
v  -3.6547 1.5680 0.9662
v  1.9151 1.5680 -1.3939
v  -2.8051 1.5680 -1.3939
v  -0.4450 1.5680 -2.3380
v  2.7647 1.5680 0.9662
v  5.6065 4.8923 -5.0853
v  9.0550 20.8234 -8.5338
v  11.8290 25.0734 0.9662
v  4.3050 45.0713 5.7162
v  -6.9050 45.0713 0.9662
v  -9.4700 25.0734 -8.0588
v  -0.4450 20.8234 -12.3338
v  -0.4450 4.8923 -7.5059
v  8.5800 25.0734 -8.0588
v  6.0150 45.0713 0.9662
v  -5.1950 45.0713 -3.7838
v  -0.4450 25.0734 -11.6688
v  4.3050 45.0713 -3.7838
v  -0.4450 45.0713 -5.6838
# 56 vertices

vn -0.6644 -0.3831 0.6418
vn 0.0000 -0.1109 0.9938
vn -0.7145 -0.1116 0.6906
vn 0.0000 -0.3816 0.9243
vn -0.0000 0.3816 -0.9243
vn 0.6644 0.3831 -0.6418
vn -0.0000 0.1109 -0.9938
vn 0.7145 0.1116 -0.6906
vn 0.6644 -0.3831 0.6418
vn 0.7145 -0.1116 0.6906
vn -0.7145 0.1116 -0.6906
vn -0.6644 0.3831 -0.6418
vn -0.7170 0.0767 0.6928
vn 0.0000 0.0761 0.9971
vn -0.0000 -0.0761 -0.9971
vn 0.7170 -0.0767 -0.6928
vn -0.9273 -0.3743 -0.0000
vn -0.9941 -0.1081 -0.0000
vn 0.9941 0.1081 0.0000
vn 0.9273 0.3743 0.0000
vn -0.5217 -0.6895 0.5024
vn 0.0000 -0.6888 0.7250
vn -0.0000 0.6888 -0.7250
vn 0.5217 0.6895 -0.5024
vn 0.9941 -0.1081 -0.0000
vn 0.9273 -0.3743 -0.0000
vn -0.9941 0.1081 0.0000
vn -0.9273 0.3743 0.0000
vn 0.7170 0.0767 0.6928
vn -0.7170 -0.0767 -0.6928
vn 0.5217 -0.6895 0.5024
vn -0.5217 0.6895 -0.5024
vn -0.7017 0.2195 0.6778
vn 0.0000 0.2178 0.9760
vn -0.0000 -0.2178 -0.9760
vn 0.7017 -0.2195 -0.6778
vn -0.9972 0.0742 0.0000
vn 0.9972 -0.0742 -0.0000
vn -0.6644 -0.3831 -0.6418
vn -0.7145 -0.1116 -0.6906
vn 0.7145 0.1116 0.6906
vn 0.6644 0.3831 0.6418
vn -0.7319 -0.6815 -0.0000
vn 0.7319 0.6815 0.0000
vn -0.0000 -0.9397 0.3421
vn -0.2502 -0.9383 0.2388
vn 0.0000 0.9397 -0.3421
vn 0.2502 0.9383 -0.2388
vn 0.7319 -0.6815 -0.0000
vn -0.7319 0.6815 0.0000
vn 0.6644 -0.3831 -0.6418
vn 0.7145 -0.1116 -0.6906
vn -0.7145 0.1116 0.6906
vn -0.6644 0.3831 0.6418
vn 0.9972 0.0742 0.0000
vn -0.9972 -0.0742 -0.0000
vn 0.7017 0.2195 0.6778
vn -0.7017 -0.2195 -0.6778
vn 0.2502 -0.9383 0.2388
vn -0.2502 0.9383 -0.2388
vn -0.6896 0.2893 0.6639
vn 0.0000 0.2867 0.9580
vn -0.0000 -0.2867 -0.9580
vn 0.6896 -0.2893 -0.6639
vn -0.9772 0.2123 0.0000
vn 0.9772 -0.2123 -0.0000
vn -0.7170 0.0767 -0.6928
vn 0.7170 -0.0767 0.6928
vn 0.0000 -0.1109 -0.9938
vn 0.0000 -0.3816 -0.9243
vn -0.0000 0.3816 0.9243
vn -0.0000 0.1109 0.9938
vn -0.5217 -0.6895 -0.5024
vn 0.5217 0.6895 0.5024
vn -0.3441 -0.9389 -0.0000
vn 0.3441 0.9389 0.0000
vn 0.2502 -0.9383 -0.2388
vn -0.2502 -0.9383 -0.2388
vn 0.0000 -0.9397 -0.3421
vn 0.3441 -0.9389 -0.0000
vn -0.3441 0.9389 0.0000
vn -0.2502 0.9383 0.2388
vn 0.2502 0.9383 0.2388
vn -0.0000 0.9397 0.3421
vn 0.5217 -0.6895 -0.5024
vn -0.5217 0.6895 0.5024
vn 0.7170 0.0767 -0.6928
vn -0.7170 -0.0767 0.6928
vn 0.9772 0.2123 0.0000
vn -0.9772 -0.2123 -0.0000
vn 0.6896 0.2893 0.6639
vn -0.6896 -0.2893 -0.6639
vn -0.9602 0.2792 0.0000
vn 0.9602 -0.2792 -0.0000
vn -0.7017 0.2195 -0.6778
vn 0.7017 -0.2195 0.6778
vn 0.0000 0.0761 -0.9971
vn -0.0000 -0.0761 0.9971
vn 0.0000 -0.6888 -0.7250
vn -0.0000 0.6888 0.7250
vn 0.7017 0.2195 -0.6778
vn -0.7017 -0.2195 0.6778
vn 0.9602 0.2792 0.0000
vn -0.9602 -0.2792 -0.0000
vn -0.6896 0.2893 -0.6639
vn 0.6896 -0.2893 0.6639
vn 0.0000 0.2178 -0.9760
vn -0.0000 -0.2178 0.9760
vn 0.6896 0.2893 -0.6639
vn -0.6896 -0.2893 0.6639
vn 0.0000 0.2867 -0.9580
vn -0.0000 -0.2867 0.9580
# 112 vertex normals

vt 0.2612 0.1711 0.0000
vt 0.3750 0.2596 0.0000
vt 0.2500 0.2596 0.0000
vt 0.3750 0.1711 0.0000
vt 0.4888 0.1711 0.0000
vt 0.5000 0.2596 0.0000
vt 0.2500 0.3508 0.0000
vt 0.3750 0.3508 0.0000
vt 0.1250 0.1711 0.0000
vt 0.2387 0.1711 0.0000
vt 0.1250 0.2596 0.0000
vt 0.2875 0.0761 0.0000
vt 0.3750 0.1791 0.0000
vt 0.2500 0.1791 0.0000
vt 0.3750 0.0761 0.0000
vt 0.6250 0.2596 0.0000
vt 0.5113 0.1711 0.0000
vt 0.6250 0.1711 0.0000
vt 0.5000 0.3508 0.0000
vt 0.4625 0.0761 0.0000
vt 0.5000 0.1791 0.0000
vt 0.2562 0.4237 0.0000
vt 0.3750 0.4237 0.0000
vt 0.1250 0.3508 0.0000
vt 0.0113 0.1711 0.0000
vt -0.0000 0.2596 0.0000
vt 0.1250 0.0761 0.0000
vt 0.2125 0.0761 0.0000
vt 0.1250 0.1791 0.0000
vt 0.3750 -0.0000 0.0000
vt 0.2500 0.0896 0.0000
vt 0.3262 -0.0000 0.0000
vt 0.3750 0.0896 0.0000
vt 0.6250 0.1791 0.0000
vt 0.5375 0.0761 0.0000
vt 0.6250 0.0761 0.0000
vt 0.7387 0.1711 0.0000
vt 0.7500 0.2596 0.0000
vt 0.6250 0.3508 0.0000
vt 0.4938 0.4237 0.0000
vt 0.5000 0.0896 0.0000
vt 0.4238 -0.0000 0.0000
vt 0.3125 0.7050 0.0000
vt 0.3750 0.7050 0.0000
vt 0.2438 0.4237 0.0000
vt 0.1250 0.4237 0.0000
vt 0.0000 0.2596 0.0000
vt -0.0000 0.3508 0.0000
vt 0.8750 0.2596 0.0000
vt 0.9887 0.1711 0.0000
vt 1.0000 0.2596 0.0000
vt 0.8750 0.1711 0.0000
vt 0.0375 0.0761 0.0000
vt 0.0000 0.1791 0.0000
vt 0.1250 -0.0000 0.0000
vt 0.1250 0.0896 0.0000
vt 0.1737 -0.0000 0.0000
vt 0.2343 0.2035 0.0000
vt 0.2148 0.2035 0.0000
vt 0.2830 0.2035 0.0000
vt 0.3318 0.2035 0.0000
vt 0.3513 0.2035 0.0000
vt 0.2723 0.0462 0.0000
vt 0.2235 0.0716 0.0000
vt 0.3210 0.0716 0.0000
vt 0.2060 0.1352 0.0000
vt 0.3386 0.1352 0.0000
vt 0.2235 0.1988 0.0000
vt 0.3210 0.1988 0.0000
vt 0.2723 0.2242 0.0000
vt 0.6250 0.0896 0.0000
vt 0.5763 -0.0000 0.0000
vt 0.6250 -0.0000 0.0000
vt 0.7125 0.0761 0.0000
vt 0.7500 0.1791 0.0000
vt 0.7613 0.1711 0.0000
vt 0.7500 0.3508 0.0000
vt 0.6250 0.4237 0.0000
vt 0.5063 0.4237 0.0000
vt 0.4375 0.7050 0.0000
vt 0.1875 0.7050 0.0000
vt 0.1250 0.7050 0.0000
vt 0.0063 0.4237 0.0000
vt 0.8750 0.3508 0.0000
vt 1.0000 0.3508 0.0000
vt 0.8750 0.1791 0.0000
vt 0.9625 0.0761 0.0000
vt 1.0000 0.1791 0.0000
vt 0.8750 0.0761 0.0000
vt 0.0763 0.0000 0.0000
vt -0.0000 0.0896 0.0000
vt 0.8750 -0.0000 0.0000
vt 1.0000 0.0896 0.0000
vt 0.8750 0.0896 0.0000
vt 0.9237 -0.0000 0.0000
vt 0.7500 0.0896 0.0000
vt 0.8263 0.0000 0.0000
vt 0.6737 0.0000 0.0000
vt 0.7875 0.0761 0.0000
vt 0.7437 0.4237 0.0000
vt 0.6250 0.7050 0.0000
vt 0.5625 0.7050 0.0000
vt 0.0625 0.7050 0.0000
vt 0.9937 0.4237 0.0000
vt 0.8750 0.4237 0.0000
vt 0.7563 0.4237 0.0000
vt 0.6875 0.7050 0.0000
vt 0.9375 0.7050 0.0000
vt 0.8750 0.7050 0.0000
vt 0.8125 0.7050 0.0000
# 110 texture coords

g Component_1
usemtl material_0
s off
f 1/1/1 2/2/2 3/3/3 
f 2/2/2 1/1/1 4/4/4 
f 4/4/5 1/1/6 2/2/7 
f 3/3/8 2/2/7 1/1/6 
f 5/5/9 2/2/2 4/4/4 
f 2/2/2 5/5/9 6/6/10 
f 6/6/11 5/5/12 2/2/7 
f 4/4/5 2/2/7 5/5/12 
f 2/2/2 7/7/13 3/3/3 
f 7/7/13 2/2/2 8/8/14 
f 8/8/15 2/2/7 7/7/16 
f 3/3/8 7/7/16 2/2/7 
f 3/3/3 9/9/17 1/10/1 
f 9/9/17 3/3/3 10/11/18 
f 10/11/19 3/3/8 9/9/20 
f 1/10/6 9/9/20 3/3/8 
f 11/12/21 4/13/4 1/14/1 
f 4/13/4 11/12/21 12/15/22 
f 12/15/23 11/12/24 4/13/5 
f 1/14/6 4/13/5 11/12/24 
f 13/16/25 5/17/9 14/18/26 
f 5/17/9 13/16/25 6/6/10 
f 6/6/11 13/16/27 5/17/12 
f 14/18/28 5/17/12 13/16/27 
f 6/6/10 8/8/14 2/2/2 
f 8/8/14 6/6/10 15/19/29 
f 15/19/30 6/6/11 8/8/15 
f 2/2/7 8/8/15 6/6/11 
f 16/20/31 4/13/4 12/15/22 
f 4/13/4 16/20/31 5/21/9 
f 5/21/12 16/20/32 4/13/5 
f 12/15/23 4/13/5 16/20/32 
f 8/8/14 17/22/33 7/7/13 
f 17/22/33 8/8/14 18/23/34 
f 18/23/35 8/8/15 17/22/36 
f 7/7/16 17/22/36 8/8/15 
f 7/7/13 10/11/18 3/3/3 
f 10/11/18 7/7/13 19/24/37 
f 19/24/38 7/7/16 10/11/19 
f 3/3/8 10/11/19 7/7/16 
f 10/11/18 20/25/39 9/9/17 
f 20/25/39 10/11/18 21/26/40 
f 21/26/41 10/11/19 20/25/42 
f 9/9/20 20/25/42 10/11/19 
f 1/14/1 22/27/43 11/28/21 
f 22/27/43 1/14/1 9/29/17 
f 9/29/20 1/14/6 22/27/44 
f 11/28/24 22/27/44 1/14/6 
f 23/30/45 11/31/21 24/32/46 
f 11/31/21 23/30/45 12/33/22 
f 12/33/23 23/30/47 11/31/24 
f 24/32/48 11/31/24 23/30/47 
f 14/34/26 16/35/31 25/36/49 
f 16/35/31 14/34/26 5/21/9 
f 5/21/12 14/34/28 16/35/32 
f 25/36/50 16/35/32 14/34/28 
f 26/37/51 13/16/25 14/18/26 
f 13/16/25 26/37/51 27/38/52 
f 27/38/53 26/37/54 13/16/27 
f 14/18/28 13/16/27 26/37/54 
f 28/39/55 6/6/10 13/16/25 
f 6/6/10 28/39/55 15/19/29 
f 15/19/30 28/39/56 6/6/11 
f 13/16/27 6/6/11 28/39/56 
f 8/8/14 29/40/57 18/23/34 
f 29/40/57 8/8/14 15/19/29 
f 15/19/30 8/8/15 29/40/58 
f 18/23/35 29/40/58 8/8/15 
f 16/41/31 23/30/45 30/42/59 
f 23/30/45 16/41/31 12/33/22 
f 12/33/23 16/41/32 23/30/47 
f 30/42/60 23/30/47 16/41/32 
f 18/23/34 31/43/61 17/22/33 
f 31/43/61 18/23/34 32/44/62 
f 32/44/63 18/23/35 31/43/64 
f 17/22/36 31/43/64 18/23/35 
f 17/45/33 19/24/37 7/7/13 
f 19/24/37 17/45/33 33/46/65 
f 33/46/66 17/45/36 19/24/38 
f 7/7/16 19/24/38 17/45/36 
f 19/24/37 21/47/40 10/11/18 
f 21/47/40 19/24/37 34/48/67 
f 34/48/68 19/24/38 21/47/41 
f 10/11/19 21/47/41 19/24/38 
f 35/49/69 20/50/39 21/51/40 
f 20/50/39 35/49/69 36/52/70 
f 36/52/71 35/49/72 20/50/42 
f 21/51/41 20/50/42 35/49/72 
f 9/29/17 37/53/73 22/27/43 
f 37/53/73 9/29/17 20/54/39 
f 20/54/42 9/29/20 37/53/74 
f 22/27/44 37/53/74 9/29/20 
f 38/55/75 11/31/21 22/56/43 
f 11/31/21 38/55/75 24/57/46 
f 24/57/48 38/55/76 11/31/24 
f 22/56/44 11/31/24 38/55/76 
f 39/58/77 40/58/78 41/59/79 
f 40/58/78 39/58/77 38/60/75 
f 38/60/75 39/58/77 42/60/80 
f 38/60/75 42/60/80 24/61/46 
f 24/61/46 42/60/80 30/61/59 
f 24/61/46 30/61/59 23/62/45 
f 23/63/47 30/64/60 24/65/48 
f 30/64/60 42/66/81 24/65/48 
f 24/65/48 42/66/81 38/67/76 
f 42/66/81 39/68/82 38/67/76 
f 38/67/76 39/68/82 40/69/83 
f 41/70/84 40/69/83 39/68/82 
f 25/71/49 30/72/59 42/73/80 
f 30/72/59 25/71/49 16/41/31 
f 16/41/32 25/71/50 30/72/60 
f 42/73/81 30/72/60 25/71/50 
f 43/74/85 14/34/26 25/36/49 
f 14/34/26 43/74/85 26/75/51 
f 26/75/54 43/74/86 14/34/28 
f 25/36/50 14/34/28 43/74/86 
f 27/38/52 36/52/70 35/49/69 
f 36/52/70 27/38/52 26/76/51 
f 26/76/54 27/38/53 36/52/71 
f 35/49/72 36/52/71 27/38/53 
f 27/38/52 28/39/55 13/16/25 
f 28/39/55 27/38/52 44/77/87 
f 44/77/88 27/38/53 28/39/56 
f 13/16/27 28/39/56 27/38/53 
f 45/78/89 15/19/29 28/39/55 
f 15/19/29 45/78/89 29/79/57 
f 29/79/58 45/78/90 15/19/30 
f 28/39/56 15/19/30 45/78/90 
f 18/23/34 46/80/91 32/44/62 
f 46/80/91 18/23/34 29/40/57 
f 29/40/58 18/23/35 46/80/92 
f 32/44/63 46/80/92 18/23/35 
f 31/81/61 33/46/65 17/45/33 
f 33/46/65 31/81/61 47/82/93 
f 47/82/94 31/81/64 33/46/66 
f 17/45/36 33/46/66 31/81/64 
f 33/46/65 34/48/67 19/24/37 
f 34/48/67 33/46/65 48/83/95 
f 48/83/96 33/46/66 34/48/68 
f 19/24/38 34/48/68 33/46/66 
f 49/84/97 21/51/40 34/85/67 
f 21/51/40 49/84/97 35/49/69 
f 35/49/72 49/84/98 21/51/41 
f 34/85/68 21/51/41 49/84/98 
f 36/86/70 37/87/73 20/88/39 
f 37/87/73 36/86/70 50/89/99 
f 50/89/100 36/86/71 37/87/74 
f 20/88/42 37/87/74 36/86/71 
f 40/90/78 22/56/43 37/91/73 
f 22/56/43 40/90/78 38/55/75 
f 38/55/76 40/90/83 22/56/44 
f 37/91/74 22/56/44 40/90/83 
f 41/92/79 37/93/73 50/94/99 
f 37/93/73 41/92/79 40/95/78 
f 40/95/83 41/92/84 37/93/74 
f 50/94/100 37/93/74 41/92/84 
f 43/96/85 41/92/79 50/94/99 
f 41/92/79 43/96/85 39/97/77 
f 39/97/82 43/96/86 41/92/84 
f 50/94/100 41/92/84 43/96/86 
f 25/71/49 39/98/77 43/96/85 
f 39/98/77 25/71/49 42/73/80 
f 42/73/81 25/71/50 39/98/82 
f 43/96/86 39/98/82 25/71/50 
f 26/75/51 50/89/99 36/86/70 
f 50/89/99 26/75/51 43/99/85 
f 43/99/86 26/75/54 50/89/100 
f 36/86/71 50/89/100 26/75/54 
f 44/77/87 35/49/69 49/84/97 
f 35/49/69 44/77/87 27/38/52 
f 27/38/53 44/77/88 35/49/72 
f 49/84/98 35/49/72 44/77/88 
f 44/77/87 45/78/89 28/39/55 
f 45/78/89 44/77/87 51/100/101 
f 51/100/102 44/77/88 45/78/90 
f 28/39/56 45/78/90 44/77/88 
f 52/101/103 29/79/57 45/78/89 
f 29/79/57 52/101/103 46/102/91 
f 46/102/92 52/101/104 29/79/58 
f 45/78/90 29/79/58 52/101/104 
f 47/82/93 48/83/95 33/46/65 
f 48/83/95 47/82/93 53/103/105 
f 53/103/106 47/82/94 48/83/96 
f 33/46/66 48/83/96 47/82/94 
f 48/104/95 49/84/97 34/85/67 
f 49/84/97 48/104/95 54/105/107 
f 54/105/108 48/104/96 49/84/98 
f 34/85/68 49/84/98 48/104/96 
f 51/106/101 49/84/97 54/105/107 
f 49/84/97 51/106/101 44/77/87 
f 44/77/88 51/106/102 49/84/98 
f 54/105/108 49/84/98 51/106/102 
f 51/100/101 52/101/103 45/78/89 
f 52/101/103 51/100/101 55/107/109 
f 55/107/110 51/100/102 52/101/104 
f 45/78/90 52/101/104 51/100/102 
f 53/108/105 54/105/107 48/104/95 
f 54/105/107 53/108/105 56/109/111 
f 56/109/112 53/108/106 54/105/108 
f 48/104/96 54/105/108 53/108/106 
f 55/110/109 54/105/107 56/109/111 
f 54/105/107 55/110/109 51/106/101 
f 51/106/102 55/110/110 54/105/108 
f 56/109/112 54/105/108 55/110/110 
# 0 polygons - 204 triangles

